# xmcd
#
# Track frame offsets: 
#        150
#        14725
#        29638
#        46902
#        73134
#        89314
#        105614
#        120003
#        137663
#        149216
#        161110
#
# Disc length: 2527 seconds
#
# Revision: 2
# Processed by: cddbd v1.5.1PL0 Copyright (c) Steve Scherf et al.
# Submitted via: ExactAudioCopy v0.95a5
#
DISCID=9f09dd0b
DTITLE=Randy Wayne Sitzler - Pontiac Trail
DYEAR=2003
DGENRE=Folk
TTITLE0=Got My Feet On The Ground
TTITLE1=Boiling Bones For Stew
TTITLE2=Ring
TTITLE3=One Of These Days
TTITLE4=Around Here
TTITLE5=Kentucky Fried
TTITLE6=Charlevoix
TTITLE7=Didn't See Love Coming
TTITLE8=Together
TTITLE9=There's The Wrong Way (Then There's Mine)
TTITLE10=Loretta
EXTD=More info about Randy Wayne Sitzler at www.DaltonThomasMusic.com
EXTT0=
EXTT1=
EXTT2=
EXTT3=
EXTT4=
EXTT5=
EXTT6=
EXTT7=
EXTT8=
EXTT9=
EXTT10=
PLAYORDER=
